HIERARCHY
ROOT hip
{
  OFFSET 0.00112043 5.09927 -9.65472
  CHANNELS 6 Xposition Yposition Zposition Zrotation Xrotation Yrotation
  JOINT abdomen
  {
    OFFSET 0 -1.186 -1.5018
    CHANNELS 3 Zrotation Xrotation Yrotation
    JOINT abdomen2
    {
      OFFSET 0 9.964 0.2134
      CHANNELS 3 Zrotation Xrotation Yrotation
      JOINT chest
      {
        OFFSET 0 13.134 -3.2573
        CHANNELS 3 Zrotation Xrotation Yrotation
        JOINT neck
        {
          OFFSET 0 20.686 -1.6905
          CHANNELS 3 Zrotation Xrotation Yrotation
          JOINT head
          {
            OFFSET 0 7.238 -0.1237
            CHANNELS 3 Zrotation Xrotation Yrotation
            End Site
            {
              OFFSET 0 0 0
            }
          }
        }
        JOINT lCollar
        {
          OFFSET 1.7069 20.075 5.0056
          CHANNELS 3 Zrotation Xrotation Yrotation
          JOINT lShldr
          {
            OFFSET 13.6458 -0.047 -4.849
            CHANNELS 3 Zrotation Xrotation Yrotation
            JOINT lForeArm
            {
              OFFSET 28.3255 -0.9759 2.2888
              CHANNELS 3 Zrotation Xrotation Yrotation
              JOINT lHand
              {
                OFFSET 22.1583 -0.53 10.8316
                CHANNELS 3 Zrotation Xrotation Yrotation
                JOINT lThumb1
                {
                  OFFSET 0.786 0.112 2.5817
                  CHANNELS 3 Zrotation Xrotation Yrotation
                  JOINT lThumb2
                  {
                    OFFSET 0.3601 -0.878 4.2331
                    CHANNELS 3 Zrotation Xrotation Yrotation
                    JOINT lThumb2_End
                    {
                      OFFSET 1.8127 -1.216 2.2227
                      CHANNELS 3 Zrotation Xrotation Yrotation
                      End Site
                      {
                        OFFSET 0.0181 -0.0122 0.0222
                      }
                    }
                  }
                }
                JOINT lCarpal1
                {
                  OFFSET 0.9571 1.114 1.7695
                  CHANNELS 3 Zrotation Xrotation Yrotation
                  JOINT lIndex1
                  {
                    OFFSET 4.1246 0.487 4.1451
                    CHANNELS 3 Zrotation Xrotation Yrotation
                    JOINT lIndex2
                    {
                      OFFSET 3.4052 -1.454 2.7682
                      CHANNELS 3 Zrotation Xrotation Yrotation
                      JOINT lIndex2_End
                      {
                        OFFSET 1.4531 -1.795 1.2713
                        CHANNELS 3 Zrotation Xrotation Yrotation
                        End Site
                        {
                          OFFSET 0.0145 -0.0179 0.0127
                        }
                      }
                    }
                  }
                  JOINT lMid1
                  {
                    OFFSET 5.6954 0.21 2.1184
                    CHANNELS 3 Zrotation Xrotation Yrotation
                    JOINT lMid2
                    {
                      OFFSET 3.9766 -1.54 2.3863
                      CHANNELS 3 Zrotation Xrotation Yrotation
                      JOINT lMid2_End
                      {
                        OFFSET 1.4042 -1.926 1.125
                        CHANNELS 3 Zrotation Xrotation Yrotation
                        End Site
                        {
                          OFFSET 0.014 -0.0193 0.0113
                        }
                      }
                    }
                  }
                }
                JOINT lCarpal2
                {
                  OFFSET 2.0956 0.66 -0.3894
                  CHANNELS 3 Zrotation Xrotation Yrotation
                  JOINT lRing1
                  {
                    OFFSET 5.0395 -0.09 2.4971
                    CHANNELS 3 Zrotation Xrotation Yrotation
                    JOINT lRing2
                    {
                      OFFSET 3.7921 -1.552 1.4806
                      CHANNELS 3 Zrotation Xrotation Yrotation
                      JOINT lRing2_End
                      {
                        OFFSET 1.4655 -1.808 0.9609
                        CHANNELS 3 Zrotation Xrotation Yrotation
                        End Site
                        {
                          OFFSET 0.0147 -0.0181 0.0096
                        }
                      }
                    }
                  }
                  JOINT lPinky1
                  {
                    OFFSET 4.9141 -1.269 0.3591
                    CHANNELS 3 Zrotation Xrotation Yrotation
                    JOINT lPinky2
                    {
                      OFFSET 3.1477 -1.685 0.8462
                      CHANNELS 3 Zrotation Xrotation Yrotation
                      JOINT lPinky2_End
                      {
                        OFFSET 0.8055 -1.585 0.7955
                        CHANNELS 3 Zrotation Xrotation Yrotation
                        End Site
                        {
                          OFFSET 0.0081 -0.0158 0.008
                        }
                      }
                    }
                  }
                }
              }
            }
          }
        }
        JOINT rCollar
        {
          OFFSET -1.7069 20.075 5.0056
          CHANNELS 3 Zrotation Xrotation Yrotation
          JOINT rShldr
          {
            OFFSET -13.6458 -0.047 -4.849
            CHANNELS 3 Zrotation Xrotation Yrotation
            JOINT rForeArm
            {
              OFFSET -28.3255 -0.9759 2.2888
              CHANNELS 3 Zrotation Xrotation Yrotation
              JOINT rHand
              {
                OFFSET -22.1583 -0.53 10.8316
                CHANNELS 3 Zrotation Xrotation Yrotation
                JOINT rThumb1
                {
                  OFFSET -0.786 0.112 2.5817
                  CHANNELS 3 Zrotation Xrotation Yrotation
                  JOINT rThumb2
                  {
                    OFFSET -0.3601 -0.878 4.2331
                    CHANNELS 3 Zrotation Xrotation Yrotation
                    JOINT rThumb2_End
                    {
                      OFFSET -1.8127 -1.216 2.2227
                      CHANNELS 3 Zrotation Xrotation Yrotation
                      End Site
                      {
                        OFFSET -0.0181 -0.0122 0.0222
                      }
                    }
                  }
                }
                JOINT rCarpal1
                {
                  OFFSET -0.9571 1.114 1.7695
                  CHANNELS 3 Zrotation Xrotation Yrotation
                  JOINT rIndex1
                  {
                    OFFSET -4.1246 0.487 4.1451
                    CHANNELS 3 Zrotation Xrotation Yrotation
                    JOINT rIndex2
                    {
                      OFFSET -3.4052 -1.454 2.7682
                      CHANNELS 3 Zrotation Xrotation Yrotation
                      JOINT rIndex2_End
                      {
                        OFFSET -1.4531 -1.795 1.2713
                        CHANNELS 3 Zrotation Xrotation Yrotation
                        End Site
                        {
                          OFFSET -0.0145 -0.018 0.0127
                        }
                      }
                    }
                  }
                  JOINT rMid1
                  {
                    OFFSET -5.6954 0.21 2.1184
                    CHANNELS 3 Zrotation Xrotation Yrotation
                    JOINT rMid2
                    {
                      OFFSET -3.9766 -1.54 2.3863
                      CHANNELS 3 Zrotation Xrotation Yrotation
                      JOINT rMid2_End
                      {
                        OFFSET -1.4042 -1.926 1.125
                        CHANNELS 3 Zrotation Xrotation Yrotation
                        End Site
                        {
                          OFFSET -0.014 -0.0193 0.0113
                        }
                      }
                    }
                  }
                }
                JOINT rCarpal2
                {
                  OFFSET -2.0956 0.66 -0.3894
                  CHANNELS 3 Zrotation Xrotation Yrotation
                  JOINT rRing1
                  {
                    OFFSET -5.0395 -0.09 2.4971
                    CHANNELS 3 Zrotation Xrotation Yrotation
                    JOINT rRing2
                    {
                      OFFSET -3.7921 -1.552 1.4806
                      CHANNELS 3 Zrotation Xrotation Yrotation
                      JOINT rRing2_End
                      {
                        OFFSET -1.4655 -1.808 0.9609
                        CHANNELS 3 Zrotation Xrotation Yrotation
                        End Site
                        {
                          OFFSET -0.0147 -0.0181 0.0096
                        }
                      }
                    }
                  }
                  JOINT rPinky1
                  {
                    OFFSET -4.9141 -1.269 0.3592
                    CHANNELS 3 Zrotation Xrotation Yrotation
                    JOINT rPinky2
                    {
                      OFFSET -3.1477 -1.685 0.8462
                      CHANNELS 3 Zrotation Xrotation Yrotation
                      JOINT rPinky2_End
                      {
                        OFFSET -0.8055 -1.585 0.7955
                        CHANNELS 3 Zrotation Xrotation Yrotation
                        End Site
                        {
                          OFFSET -0.0081 -0.0158 0.008
                        }
                      }
                    }
                  }
                }
              }
            }
          }
        }
      }
    }
  }
  JOINT lThigh
  {
    OFFSET 8.367 -8.2066 0.5982
    CHANNELS 3 Zrotation Xrotation Yrotation
    JOINT lShin
    {
      OFFSET 2.1923 -43.463 -0.4932
      CHANNELS 3 Zrotation Xrotation Yrotation
      JOINT lFoot
      {
        OFFSET 0.7333 -45.8593 -2.6451
        CHANNELS 3 Zrotation Xrotation Yrotation
        End Site
        {
          OFFSET 2.6618 -4.2699 12.3931
        }
      }
    }
  }
  JOINT rThigh
  {
    OFFSET -8.367 -8.2066 0.5982
    CHANNELS 3 Zrotation Xrotation Yrotation
    JOINT rShin
    {
      OFFSET -2.1923 -43.463 -0.4931
      CHANNELS 3 Zrotation Xrotation Yrotation
      JOINT rFoot
      {
        OFFSET -0.7333 -45.8593 -2.6451
        CHANNELS 3 Zrotation Xrotation Yrotation
        End Site
        {
          OFFSET -2.6618 -4.2699 12.3931
        }
      }
    }
  }
}
MOTION
Frames:	4
Frame Time:	0.0333333
42.1118 -1.85023 71.4643 0 76.2989 -0 -0.456112 2.861 -0.194664 -0.904169 5.72343 -0.367173 -0.90417 5.72348 -0.367172 -0.00221264 -2.95577 -44.0018 -2.3404 -16.7863 -31.2042 -3.94438 8.42782 -6.61883 -31.4605 -46.0783 -1.98904 32.8559 -20.3715 -25.044 7.49078 -39.1457 -23.6843 2.48481e-016 -1.49089e-016 -0 -1.98785e-016 -5.96354e-016 -0 -7.70291e-016 -1.98785e-016 3.18055e-015 2.48481e-016 -1.98785e-016 -0 5.71506e-016 -1.49089e-016 9.54166e-015 -2.73329e-016 -4.96962e-016 -3.18055e-015 -5.46658e-016 -9.93923e-017 -0 5.71506e-016 -1.49089e-016 9.54166e-015 -2.73329e-016 -4.96962e-016 -3.18055e-015 -5.46658e-016 -9.93923e-017 -0 2.48481e-016 -1.98785e-016 -0 5.71506e-016 -1.49089e-016 9.54166e-015 -2.73329e-016 -4.96962e-016 -3.18055e-015 -5.46658e-016 -9.93923e-017 -0 5.71506e-016 -1.49089e-016 9.54166e-015 -2.73329e-016 -4.96962e-016 -3.18055e-015 -5.46658e-016 -9.93923e-017 -0 51.0719 -13.8088 3.46439 35.7551 -38.6331 4.90392 -31.7913 -20.3962 16.8246 -0.549647 -17.1152 30.1821 8.82781e-032 1.59028e-015 -3.18055e-015 -1.98785e-016 1.59028e-015 -0 -1.98785e-016 1.59028e-015 -0 -1.98785e-016 0 -1.59028e-015 -5.96354e-016 0 6.36111e-015 3.97569e-016 0 -0 1.98785e-016 0 -1.59028e-015 -5.96354e-016 0 6.36111e-015 3.97569e-016 0 -0 1.98785e-016 0 -1.59028e-015 -1.98785e-016 0 -1.59028e-015 -5.96354e-016 0 6.36111e-015 3.97569e-016 0 -0 1.98785e-016 0 -1.59028e-015 -5.96354e-016 0 6.36111e-015 3.97569e-016 0 -0 1.98785e-016 0 -1.59028e-015 4.06878 13.2339 47.2813 -4.67872 -2.14643 21.6702 10.8077 47.0446 -8.00136 -5.74133 9.85791 -52.3268 6.55349 9.19568 -22.8756 -21.5989 49.7334 14.8657 
42.1163 -1.86695 71.4623 0 76.5239 -0 -0.443563 2.67489 -0.195548 -0.879413 5.3512 -0.370941 -0.879412 5.35121 -0.37094 -0.00237036 -2.54258 -44.0017 -2.14428 -16.6735 -30.7678 -4.27868 7.76808 -6.51157 -31.4605 -46.0783 -1.98904 32.8473 -20.3628 -25.0244 6.5976 -38.1139 -24.5487 7.45443e-017 1.39149e-015 -0 9.19379e-016 3.72721e-016 -3.18055e-015 -3.72721e-016 7.45443e-016 -0 7.45443e-017 1.51573e-015 -0 5.09386e-016 -3.97569e-016 3.18055e-015 -6.33626e-016 1.2424e-016 -3.18055e-015 -1.01877e-015 3.72721e-016 3.18055e-015 5.09386e-016 -3.97569e-016 3.18055e-015 -6.33626e-016 1.2424e-016 -3.18055e-015 -1.01877e-015 3.72721e-016 3.18055e-015 7.45443e-017 1.51573e-015 -0 5.09386e-016 -3.97569e-016 3.18055e-015 -6.33626e-016 1.2424e-016 -3.18055e-015 -1.01877e-015 3.72721e-016 3.18055e-015 5.09386e-016 -3.97569e-016 3.18055e-015 -6.33626e-016 1.2424e-016 -3.18055e-015 -1.01877e-015 3.72721e-016 3.18055e-015 50.9453 -13.5592 2.34195 36.4472 -38.8098 5.74512 -31.9806 -20.6214 16.9481 -0.244566 -16.2841 30.385 2.20695e-032 7.95139e-016 -1.59028e-015 -2.11605e-007 -2.41737e-008 -1.34645e-008 -1.39149e-015 -7.95139e-016 6.36111e-015 -1.98785e-016 7.95139e-016 -0 -1.98785e-016 2.38542e-015 6.36111e-015 -2.11605e-007 -2.41737e-008 -1.34645e-008 -7.95139e-016 0 6.36111e-015 -1.98785e-016 2.38542e-015 6.36111e-015 -2.11605e-007 -2.41737e-008 -1.34645e-008 -7.95139e-016 0 6.36111e-015 -1.98785e-016 7.95139e-016 -0 -1.98785e-016 2.38542e-015 6.36111e-015 -2.11605e-007 -2.41737e-008 -1.34645e-008 -7.95139e-016 0 6.36111e-015 -1.98785e-016 2.38542e-015 6.36111e-015 -2.11605e-007 -2.41737e-008 -1.34645e-008 -7.95139e-016 0 6.36111e-015 3.9713 12.9974 47.1894 -4.67873 -2.15216 21.6699 10.8081 47.0465 -8.00174 -5.70722 9.48236 -51.5649 6.55454 9.21974 -22.8809 -20.571 49.9541 13.6537 
42.1207 -1.88367 71.4601 0 76.749 -0 -0.430966 2.48904 -0.196578 -0.854586 4.97952 -0.374922 -0.854585 4.9795 -0.374922 -0.00237495 -2.12974 -44.0017 -1.94919 -16.5593 -30.332 -4.61117 7.10798 -6.40837 -31.4605 -46.0783 -1.98904 32.8387 -20.3542 -25.0049 5.73686 -37.0725 -25.3805 1.36664e-016 -1.3154e-015 -6.36111e-015 6.99667e-008 -2.01503e-007 7.27616e-009 6.63133e-016 -1.84808e-016 3.18055e-015 -2.60905e-016 -9.13167e-016 -6.36111e-015 1.3977e-016 -1.97542e-015 -6.36111e-015 6.99667e-008 -2.01503e-007 7.27616e-009 5.12492e-016 -2.34504e-016 3.18055e-015 1.3977e-016 -1.97542e-015 -6.36111e-015 6.99667e-008 -2.01503e-007 7.27616e-009 5.12492e-016 -2.34504e-016 3.18055e-015 -2.60905e-016 -9.13167e-016 -6.36111e-015 1.3977e-016 -1.97542e-015 -6.36111e-015 6.99667e-008 -2.01503e-007 7.27616e-009 5.12492e-016 -2.34504e-016 3.18055e-015 1.3977e-016 -1.97542e-015 -6.36111e-015 6.99667e-008 -2.01503e-007 7.27616e-009 5.12492e-016 -2.34504e-016 3.18055e-015 50.8239 -13.3072 1.2217 37.1441 -38.9786 6.59091 -32.1697 -20.847 17.0711 0.0561204 -15.4523 30.5824 1.98785e-016 0 -3.18055e-015 3.97569e-016 1.59028e-015 -4.77083e-015 1.98785e-016 1.59028e-015 -4.77083e-015 -1.98785e-016 0 -1.59028e-015 -1.98785e-016 3.97569e-015 -0 3.97569e-016 1.59028e-015 -4.77083e-015 9.93923e-016 -7.95139e-016 -1.59028e-015 -1.98785e-016 3.97569e-015 -0 3.97569e-016 1.59028e-015 -4.77083e-015 9.93923e-016 -7.95139e-016 -1.59028e-015 -1.98785e-016 0 -1.59028e-015 -1.98785e-016 3.97569e-015 -0 3.97569e-016 1.59028e-015 -4.77083e-015 9.93923e-016 -7.95139e-016 -1.59028e-015 -1.98785e-016 3.97569e-015 -0 3.97569e-016 1.59028e-015 -4.77083e-015 9.93923e-016 -7.95139e-016 -1.59028e-015 3.87543 12.7595 47.0968 -4.67876 -2.15347 21.6694 10.8072 47.0466 -8.00127 -5.66901 9.10663 -50.8038 6.55577 9.24593 -22.8856 -19.53 50.1601 12.429 
42.1249 -1.9004 71.4578 0 76.9741 -0 -0.418338 2.30361 -0.197722 -0.829718 4.60858 -0.379051 -0.829718 4.60859 -0.379051 -0.00244868 -1.71692 -44.0017 -1.75517 -16.4437 -29.8971 -4.94193 6.44748 -6.3092 -31.4605 -46.0783 -1.98903 32.83 -20.3455 -24.9853 4.90716 -36.0224 -26.1809 -1.05604e-015 2.48481e-017 -9.54166e-015 -1.44884e-007 -1.60752e-007 9.93735e-007 -3.60297e-016 1.25483e-015 -3.18055e-015 1.36664e-016 1.61513e-016 -9.54166e-015 -6.33626e-016 -1.40392e-015 6.36111e-015 -1.44884e-007 -1.60752e-007 9.93735e-007 1.2424e-017 1.40392e-015 3.18055e-015 -6.33626e-016 -1.40392e-015 6.36111e-015 -1.44884e-007 -1.60752e-007 9.93735e-007 1.2424e-017 1.40392e-015 3.18055e-015 1.36664e-016 1.61513e-016 -9.54166e-015 -6.33626e-016 -1.40392e-015 6.36111e-015 -1.44884e-007 -1.60752e-007 9.93735e-007 1.2424e-017 1.40392e-015 3.18055e-015 -6.33626e-016 -1.40392e-015 6.36111e-015 -1.44884e-007 -1.60752e-007 9.93735e-007 1.2424e-017 1.40392e-015 3.18055e-015 50.7077 -13.0532 0.103856 37.8456 -39.1392 7.44102 -32.3585 -21.073 17.1934 0.352549 -14.6199 30.7745 5.38781e-008 1.60373e-008 -8.46409e-007 -9.93923e-016 -3.18055e-015 1.59028e-015 -1.57724e-007 -8.14988e-009 -8.59879e-007 -7.95139e-016 0 1.59028e-015 5.38781e-008 1.60373e-008 -8.46409e-007 -7.95139e-016 -1.59028e-015 -0 -1.57724e-007 -8.14988e-009 -8.59879e-007 5.38781e-008 1.60373e-008 -8.46409e-007 -7.95139e-016 -1.59028e-015 -0 -1.57724e-007 -8.14988e-009 -8.59879e-007 -7.95139e-016 0 1.59028e-015 5.38781e-008 1.60373e-008 -8.46409e-007 -7.95139e-016 -1.59028e-015 -0 -1.57724e-007 -8.14988e-009 -8.59879e-007 5.38781e-008 1.60373e-008 -8.46409e-007 -7.95139e-016 -1.59028e-015 -0 -1.57724e-007 -8.14988e-009 -8.59879e-007 3.77828 12.5228 47.004 -4.67877 -2.15768 21.669 10.8071 47.0482 -8.00138 -5.62643 8.73106 -50.0436 6.5571 9.2735 -22.8896 -18.4769 50.3514 11.1926 
